<mxfile host="app.diagrams.net" modified="2020-05-21T18:36:01.116Z" agent="5.0 (Windows NT 10.0; Win64; x64) AppleWebKit/537.36 (KHTML, like Gecko) Chrome/81.0.4044.138 Safari/537.36" etag="1oHeCQLgjziXS7EuyQx3" version="13.1.3" type="github">
  <diagram id="sCNQfAvjFDcfT_C7OlGz" name="Page-1">
    <mxGraphModel dx="461" dy="752" grid="1" gridSize="10" guides="1" tooltips="1" connect="1" arrows="1" fold="1" page="1" pageScale="1" pageWidth="827" pageHeight="1169" math="0" shadow="0">
      <root>
        <mxCell id="0" />
        <mxCell id="1" parent="0" />
        <mxCell id="i8g4CFV1DMbXo4orfTD8-3" value="" style="edgeStyle=orthogonalEdgeStyle;rounded=0;orthogonalLoop=1;jettySize=auto;html=1;" parent="1" source="i8g4CFV1DMbXo4orfTD8-1" target="i8g4CFV1DMbXo4orfTD8-2" edge="1">
          <mxGeometry relative="1" as="geometry" />
        </mxCell>
        <mxCell id="A54Wn-n3SiKQ8YFVsQl0-10" value="" style="edgeStyle=orthogonalEdgeStyle;rounded=0;orthogonalLoop=1;jettySize=auto;html=1;" edge="1" parent="1" source="i8g4CFV1DMbXo4orfTD8-1" target="A54Wn-n3SiKQ8YFVsQl0-9">
          <mxGeometry relative="1" as="geometry" />
        </mxCell>
        <mxCell id="i8g4CFV1DMbXo4orfTD8-1" value="&lt;font style=&quot;vertical-align: inherit&quot;&gt;&lt;font style=&quot;vertical-align: inherit&quot;&gt;IF $aplica == &quot;si&quot;&lt;br&gt;&lt;/font&gt;&lt;/font&gt;" style="text;html=1;align=center;verticalAlign=middle;resizable=0;points=[];autosize=1;fillColor=#f8cecc;strokeColor=#b85450;" parent="1" vertex="1">
          <mxGeometry x="300" y="280" width="100" height="20" as="geometry" />
        </mxCell>
        <mxCell id="A54Wn-n3SiKQ8YFVsQl0-12" value="" style="edgeStyle=orthogonalEdgeStyle;rounded=0;orthogonalLoop=1;jettySize=auto;html=1;" edge="1" parent="1" source="A54Wn-n3SiKQ8YFVsQl0-9" target="A54Wn-n3SiKQ8YFVsQl0-11">
          <mxGeometry relative="1" as="geometry" />
        </mxCell>
        <mxCell id="A54Wn-n3SiKQ8YFVsQl0-9" value="&lt;font style=&quot;vertical-align: inherit&quot;&gt;&lt;font style=&quot;vertical-align: inherit&quot;&gt;tiporegla == SERVICE FEE&lt;br&gt;&lt;/font&gt;&lt;/font&gt;" style="text;html=1;align=center;verticalAlign=middle;resizable=0;points=[];autosize=1;fillColor=#f8cecc;strokeColor=#b85450;" vertex="1" parent="1">
          <mxGeometry x="490" y="270" width="160" height="20" as="geometry" />
        </mxCell>
        <mxCell id="A54Wn-n3SiKQ8YFVsQl0-11" value="&lt;font style=&quot;vertical-align: inherit&quot;&gt;&lt;font style=&quot;vertical-align: inherit&quot;&gt;$aplicar_sf[] = $row3[&quot;eidregla&quot;]&lt;br&gt;&lt;/font&gt;&lt;/font&gt;" style="text;html=1;align=center;verticalAlign=middle;resizable=0;points=[];autosize=1;fillColor=#ffe6cc;strokeColor=#d79b00;" vertex="1" parent="1">
          <mxGeometry x="550" y="345" width="180" height="20" as="geometry" />
        </mxCell>
        <mxCell id="i8g4CFV1DMbXo4orfTD8-2" value="&lt;font style=&quot;vertical-align: inherit&quot;&gt;&lt;font style=&quot;vertical-align: inherit&quot;&gt;La regla &quot;. $ Idr.&quot; &lt;/font&gt;&lt;font style=&quot;vertical-align: inherit&quot;&gt;es una de las &lt;br&gt;posibles para ser aplicada a este itinerario.&lt;/font&gt;&lt;/font&gt;" style="text;html=1;align=center;verticalAlign=middle;resizable=0;points=[];autosize=1;fillColor=#fff2cc;strokeColor=#d6b656;" parent="1" vertex="1">
          <mxGeometry x="110" y="340" width="240" height="30" as="geometry" />
        </mxCell>
        <mxCell id="A54Wn-n3SiKQ8YFVsQl0-1" value="&lt;div&gt;$ttar=$x //ADT, NEG?&lt;/div&gt;&lt;div&gt;$tiporegla=$row3[&quot;tipo_cargo&quot;]; // &#39;MARK UP 0&#39;, &#39;DESCUENTO 1&#39;, &#39;SERVICE FEE 2&lt;span&gt;&#39;&lt;/span&gt;&lt;/div&gt;&lt;div&gt;&lt;span&gt;$aplicar = array();&lt;br&gt;$aplicar_sf = array();&lt;/span&gt;&lt;/div&gt;" style="text;html=1;align=left;verticalAlign=middle;resizable=0;points=[];autosize=1;fillColor=#d5e8d4;strokeColor=#82b366;" vertex="1" parent="1">
          <mxGeometry x="440" y="105" width="460" height="60" as="geometry" />
        </mxCell>
        <mxCell id="A54Wn-n3SiKQ8YFVsQl0-4" value="" style="edgeStyle=orthogonalEdgeStyle;rounded=0;orthogonalLoop=1;jettySize=auto;html=1;" edge="1" parent="1" source="A54Wn-n3SiKQ8YFVsQl0-2">
          <mxGeometry relative="1" as="geometry">
            <mxPoint x="455" y="445" as="targetPoint" />
          </mxGeometry>
        </mxCell>
        <mxCell id="A54Wn-n3SiKQ8YFVsQl0-8" value="" style="edgeStyle=orthogonalEdgeStyle;rounded=0;orthogonalLoop=1;jettySize=auto;html=1;" edge="1" parent="1" source="A54Wn-n3SiKQ8YFVsQl0-2" target="i8g4CFV1DMbXo4orfTD8-1">
          <mxGeometry relative="1" as="geometry">
            <mxPoint x="455" y="265" as="targetPoint" />
          </mxGeometry>
        </mxCell>
        <mxCell id="A54Wn-n3SiKQ8YFVsQl0-2" value="tiporegla != SERVICE FEE 2" style="text;html=1;align=center;verticalAlign=middle;resizable=0;points=[];autosize=1;fillColor=#f8cecc;strokeColor=#b85450;" vertex="1" parent="1">
          <mxGeometry x="370" y="345" width="170" height="20" as="geometry" />
        </mxCell>
        <mxCell id="A54Wn-n3SiKQ8YFVsQl0-6" value="$aplicar[] = $row3[&quot;eidregla&quot;];" style="text;html=1;align=center;verticalAlign=middle;resizable=0;points=[];autosize=1;fillColor=#ffe6cc;strokeColor=#d79b00;" vertex="1" parent="1">
          <mxGeometry x="380" y="450" width="170" height="20" as="geometry" />
        </mxCell>
        <mxCell id="A54Wn-n3SiKQ8YFVsQl0-15" value="" style="edgeStyle=orthogonalEdgeStyle;rounded=0;orthogonalLoop=1;jettySize=auto;html=1;" edge="1" parent="1" source="A54Wn-n3SiKQ8YFVsQl0-13" target="A54Wn-n3SiKQ8YFVsQl0-14">
          <mxGeometry relative="1" as="geometry" />
        </mxCell>
        <mxCell id="A54Wn-n3SiKQ8YFVsQl0-13" value="IF $aplica == &quot;no&quot;&lt;br&gt;" style="text;html=1;align=center;verticalAlign=middle;resizable=0;points=[];autosize=1;fillColor=#f8cecc;strokeColor=#b85450;" vertex="1" parent="1">
          <mxGeometry x="300" y="230" width="110" height="20" as="geometry" />
        </mxCell>
        <mxCell id="A54Wn-n3SiKQ8YFVsQl0-14" value="La regla &quot;.$idr.&quot; no califico para aplicarse a este itinerario" style="text;html=1;align=center;verticalAlign=middle;resizable=0;points=[];autosize=1;fillColor=#fff2cc;strokeColor=#d6b656;" vertex="1" parent="1">
          <mxGeometry x="140" y="180" width="320" height="20" as="geometry" />
        </mxCell>
      </root>
    </mxGraphModel>
  </diagram>
</mxfile>
